<mxfile host="app.diagrams.net" modified="2023-09-12T15:40:34.904Z" agent="Mozilla/5.0 (Macintosh; Intel Mac OS X 10_15_7) AppleWebKit/537.36 (KHTML, like Gecko) Chrome/116.0.0.0 Safari/537.36" etag="FN8Jm6vozIp3JwxibfVH" version="21.7.4" type="device">
  <diagram name="Page-1" id="bLdxeYwtl3Wubp8IwlFK">
    <mxGraphModel dx="939" dy="1809" grid="1" gridSize="10" guides="1" tooltips="1" connect="1" arrows="1" fold="1" page="1" pageScale="1" pageWidth="850" pageHeight="1100" math="0" shadow="0">
      <root>
        <mxCell id="0" />
        <mxCell id="1" parent="0" />
        <mxCell id="Fy9X7Dhb-et9-2_eYPAz-1" value="Card" style="swimlane;fontStyle=1;align=center;verticalAlign=top;childLayout=stackLayout;horizontal=1;startSize=26;horizontalStack=0;resizeParent=1;resizeParentMax=0;resizeLast=0;collapsible=1;marginBottom=0;whiteSpace=wrap;html=1;" vertex="1" parent="1">
          <mxGeometry x="425" y="480" width="210" height="102" as="geometry" />
        </mxCell>
        <mxCell id="Fy9X7Dhb-et9-2_eYPAz-2" value="+ rank: String&lt;br&gt;+ suite: String" style="text;strokeColor=none;fillColor=none;align=left;verticalAlign=top;spacingLeft=4;spacingRight=4;overflow=hidden;rotatable=0;points=[[0,0.5],[1,0.5]];portConstraint=eastwest;whiteSpace=wrap;html=1;" vertex="1" parent="Fy9X7Dhb-et9-2_eYPAz-1">
          <mxGeometry y="26" width="210" height="34" as="geometry" />
        </mxCell>
        <mxCell id="Fy9X7Dhb-et9-2_eYPAz-3" value="" style="line;strokeWidth=1;fillColor=none;align=left;verticalAlign=middle;spacingTop=-1;spacingLeft=3;spacingRight=3;rotatable=0;labelPosition=right;points=[];portConstraint=eastwest;strokeColor=inherit;" vertex="1" parent="Fy9X7Dhb-et9-2_eYPAz-1">
          <mxGeometry y="60" width="210" height="8" as="geometry" />
        </mxCell>
        <mxCell id="Fy9X7Dhb-et9-2_eYPAz-4" value="+ Card(String rank, String suite): void" style="text;strokeColor=none;fillColor=none;align=left;verticalAlign=top;spacingLeft=4;spacingRight=4;overflow=hidden;rotatable=0;points=[[0,0.5],[1,0.5]];portConstraint=eastwest;whiteSpace=wrap;html=1;" vertex="1" parent="Fy9X7Dhb-et9-2_eYPAz-1">
          <mxGeometry y="68" width="210" height="34" as="geometry" />
        </mxCell>
        <mxCell id="Fy9X7Dhb-et9-2_eYPAz-5" value="Hand" style="swimlane;fontStyle=1;align=center;verticalAlign=top;childLayout=stackLayout;horizontal=1;startSize=26;horizontalStack=0;resizeParent=1;resizeParentMax=0;resizeLast=0;collapsible=1;marginBottom=0;whiteSpace=wrap;html=1;" vertex="1" parent="1">
          <mxGeometry x="540" y="260" width="160" height="100" as="geometry" />
        </mxCell>
        <mxCell id="Fy9X7Dhb-et9-2_eYPAz-6" value="+ cards[5]: Card" style="text;strokeColor=none;fillColor=none;align=left;verticalAlign=top;spacingLeft=4;spacingRight=4;overflow=hidden;rotatable=0;points=[[0,0.5],[1,0.5]];portConstraint=eastwest;whiteSpace=wrap;html=1;" vertex="1" parent="Fy9X7Dhb-et9-2_eYPAz-5">
          <mxGeometry y="26" width="160" height="26" as="geometry" />
        </mxCell>
        <mxCell id="Fy9X7Dhb-et9-2_eYPAz-7" value="" style="line;strokeWidth=1;fillColor=none;align=left;verticalAlign=middle;spacingTop=-1;spacingLeft=3;spacingRight=3;rotatable=0;labelPosition=right;points=[];portConstraint=eastwest;strokeColor=inherit;" vertex="1" parent="Fy9X7Dhb-et9-2_eYPAz-5">
          <mxGeometry y="52" width="160" height="8" as="geometry" />
        </mxCell>
        <mxCell id="Fy9X7Dhb-et9-2_eYPAz-8" value="+ Hand(): void&lt;br&gt;+ evaluateHand(): int" style="text;strokeColor=none;fillColor=none;align=left;verticalAlign=top;spacingLeft=4;spacingRight=4;overflow=hidden;rotatable=0;points=[[0,0.5],[1,0.5]];portConstraint=eastwest;whiteSpace=wrap;html=1;" vertex="1" parent="Fy9X7Dhb-et9-2_eYPAz-5">
          <mxGeometry y="60" width="160" height="40" as="geometry" />
        </mxCell>
        <mxCell id="Fy9X7Dhb-et9-2_eYPAz-9" value="Player" style="swimlane;fontStyle=1;align=center;verticalAlign=top;childLayout=stackLayout;horizontal=1;startSize=26;horizontalStack=0;resizeParent=1;resizeParentMax=0;resizeLast=0;collapsible=1;marginBottom=0;whiteSpace=wrap;html=1;" vertex="1" parent="1">
          <mxGeometry x="405" y="40" width="190" height="170" as="geometry" />
        </mxCell>
        <mxCell id="Fy9X7Dhb-et9-2_eYPAz-10" value="+ name: String&lt;br&gt;+ hand: Hand&lt;br&gt;+ money: double" style="text;strokeColor=none;fillColor=none;align=left;verticalAlign=top;spacingLeft=4;spacingRight=4;overflow=hidden;rotatable=0;points=[[0,0.5],[1,0.5]];portConstraint=eastwest;whiteSpace=wrap;html=1;" vertex="1" parent="Fy9X7Dhb-et9-2_eYPAz-9">
          <mxGeometry y="26" width="190" height="34" as="geometry" />
        </mxCell>
        <mxCell id="Fy9X7Dhb-et9-2_eYPAz-11" value="" style="line;strokeWidth=1;fillColor=none;align=left;verticalAlign=middle;spacingTop=-1;spacingLeft=3;spacingRight=3;rotatable=0;labelPosition=right;points=[];portConstraint=eastwest;strokeColor=inherit;" vertex="1" parent="Fy9X7Dhb-et9-2_eYPAz-9">
          <mxGeometry y="60" width="190" height="8" as="geometry" />
        </mxCell>
        <mxCell id="Fy9X7Dhb-et9-2_eYPAz-12" value="+ Player(String name): void&lt;br&gt;+ call(): double&lt;br&gt;+ raise(double money): double&lt;br&gt;+ fold(): void&lt;br&gt;+ allIn(double money): double&lt;br&gt;+ check(): void" style="text;strokeColor=none;fillColor=none;align=left;verticalAlign=top;spacingLeft=4;spacingRight=4;overflow=hidden;rotatable=0;points=[[0,0.5],[1,0.5]];portConstraint=eastwest;whiteSpace=wrap;html=1;" vertex="1" parent="Fy9X7Dhb-et9-2_eYPAz-9">
          <mxGeometry y="68" width="190" height="102" as="geometry" />
        </mxCell>
        <mxCell id="Fy9X7Dhb-et9-2_eYPAz-17" value="Dealer" style="swimlane;fontStyle=1;align=center;verticalAlign=top;childLayout=stackLayout;horizontal=1;startSize=26;horizontalStack=0;resizeParent=1;resizeParentMax=0;resizeLast=0;collapsible=1;marginBottom=0;whiteSpace=wrap;html=1;" vertex="1" parent="1">
          <mxGeometry x="55" y="280" width="230" height="220" as="geometry">
            <mxRectangle x="80" y="560" width="80" height="30" as="alternateBounds" />
          </mxGeometry>
        </mxCell>
        <mxCell id="Fy9X7Dhb-et9-2_eYPAz-18" value="+ deck[52]: Card&lt;br&gt;- prevCall: double&lt;br&gt;+ roundCount: int&lt;br&gt;+ pot: double" style="text;strokeColor=none;fillColor=none;align=left;verticalAlign=top;spacingLeft=4;spacingRight=4;overflow=hidden;rotatable=0;points=[[0,0.5],[1,0.5]];portConstraint=eastwest;whiteSpace=wrap;html=1;" vertex="1" parent="Fy9X7Dhb-et9-2_eYPAz-17">
          <mxGeometry y="26" width="230" height="64" as="geometry" />
        </mxCell>
        <mxCell id="Fy9X7Dhb-et9-2_eYPAz-19" value="" style="line;strokeWidth=1;fillColor=none;align=left;verticalAlign=middle;spacingTop=-1;spacingLeft=3;spacingRight=3;rotatable=0;labelPosition=right;points=[];portConstraint=eastwest;strokeColor=inherit;" vertex="1" parent="Fy9X7Dhb-et9-2_eYPAz-17">
          <mxGeometry y="90" width="230" height="8" as="geometry" />
        </mxCell>
        <mxCell id="Fy9X7Dhb-et9-2_eYPAz-20" value="+ Dealer(): void&lt;br&gt;+ startRound(ante, smallBlind, bigBlind):&lt;br&gt;+ deal(): Hand&lt;br&gt;+ getCall(): double&lt;br&gt;+ shuffle(deck): deck&lt;br&gt;+ community(): community[4]&lt;br&gt;+ cashOut(): double&lt;br&gt;+ endRound():" style="text;strokeColor=none;fillColor=none;align=left;verticalAlign=top;spacingLeft=4;spacingRight=4;overflow=hidden;rotatable=0;points=[[0,0.5],[1,0.5]];portConstraint=eastwest;whiteSpace=wrap;html=1;" vertex="1" parent="Fy9X7Dhb-et9-2_eYPAz-17">
          <mxGeometry y="98" width="230" height="122" as="geometry" />
        </mxCell>
        <mxCell id="Fy9X7Dhb-et9-2_eYPAz-21" value="Poker" style="swimlane;fontStyle=1;align=center;verticalAlign=top;childLayout=stackLayout;horizontal=1;startSize=26;horizontalStack=0;resizeParent=1;resizeParentMax=0;resizeLast=0;collapsible=1;marginBottom=0;whiteSpace=wrap;html=1;" vertex="1" parent="1">
          <mxGeometry x="40" y="40" width="260" height="136" as="geometry" />
        </mxCell>
        <mxCell id="Fy9X7Dhb-et9-2_eYPAz-22" value="+ players: Player&lt;br&gt;+ dealer: Dealer" style="text;strokeColor=none;fillColor=none;align=left;verticalAlign=top;spacingLeft=4;spacingRight=4;overflow=hidden;rotatable=0;points=[[0,0.5],[1,0.5]];portConstraint=eastwest;whiteSpace=wrap;html=1;" vertex="1" parent="Fy9X7Dhb-et9-2_eYPAz-21">
          <mxGeometry y="26" width="260" height="40" as="geometry" />
        </mxCell>
        <mxCell id="Fy9X7Dhb-et9-2_eYPAz-23" value="" style="line;strokeWidth=1;fillColor=none;align=left;verticalAlign=middle;spacingTop=-1;spacingLeft=3;spacingRight=3;rotatable=0;labelPosition=right;points=[];portConstraint=eastwest;strokeColor=inherit;" vertex="1" parent="Fy9X7Dhb-et9-2_eYPAz-21">
          <mxGeometry y="66" width="260" height="8" as="geometry" />
        </mxCell>
        <mxCell id="Fy9X7Dhb-et9-2_eYPAz-24" value="+ Poker(dealer Dealer, players[] Player)&lt;br&gt;+ startGame()&lt;br&gt;+ endGame()" style="text;strokeColor=none;fillColor=none;align=left;verticalAlign=top;spacingLeft=4;spacingRight=4;overflow=hidden;rotatable=0;points=[[0,0.5],[1,0.5]];portConstraint=eastwest;whiteSpace=wrap;html=1;" vertex="1" parent="Fy9X7Dhb-et9-2_eYPAz-21">
          <mxGeometry y="74" width="260" height="62" as="geometry" />
        </mxCell>
        <mxCell id="Fy9X7Dhb-et9-2_eYPAz-27" value="" style="endArrow=diamondThin;endFill=1;endSize=24;html=1;rounded=0;entryX=0.5;entryY=1;entryDx=0;entryDy=0;entryPerimeter=0;" edge="1" parent="1">
          <mxGeometry width="160" relative="1" as="geometry">
            <mxPoint x="169" y="280" as="sourcePoint" />
            <mxPoint x="169" y="176" as="targetPoint" />
          </mxGeometry>
        </mxCell>
        <mxCell id="Fy9X7Dhb-et9-2_eYPAz-28" value="" style="endArrow=diamondThin;endFill=1;endSize=24;html=1;rounded=0;" edge="1" parent="1">
          <mxGeometry width="160" relative="1" as="geometry">
            <mxPoint x="405" y="110" as="sourcePoint" />
            <mxPoint x="300" y="110.05000000000001" as="targetPoint" />
          </mxGeometry>
        </mxCell>
        <mxCell id="Fy9X7Dhb-et9-2_eYPAz-29" value="" style="endArrow=diamondThin;endFill=1;endSize=24;html=1;rounded=0;entryX=0.537;entryY=1;entryDx=0;entryDy=0;entryPerimeter=0;exitX=0.5;exitY=0;exitDx=0;exitDy=0;" edge="1" parent="1" source="Fy9X7Dhb-et9-2_eYPAz-5" target="Fy9X7Dhb-et9-2_eYPAz-12">
          <mxGeometry width="160" relative="1" as="geometry">
            <mxPoint x="496" y="318" as="sourcePoint" />
            <mxPoint x="499.5" y="210" as="targetPoint" />
          </mxGeometry>
        </mxCell>
        <mxCell id="Fy9X7Dhb-et9-2_eYPAz-30" value="" style="endArrow=diamondThin;endFill=1;endSize=24;html=1;rounded=0;entryX=0.38;entryY=1.055;entryDx=0;entryDy=0;entryPerimeter=0;exitX=0.87;exitY=-0.018;exitDx=0;exitDy=0;exitPerimeter=0;" edge="1" parent="1" source="Fy9X7Dhb-et9-2_eYPAz-1" target="Fy9X7Dhb-et9-2_eYPAz-8">
          <mxGeometry width="160" relative="1" as="geometry">
            <mxPoint x="626.9000000000001" y="418.98" as="sourcePoint" />
            <mxPoint x="602.4000000000001" y="398.1999999999998" as="targetPoint" />
          </mxGeometry>
        </mxCell>
        <mxCell id="Fy9X7Dhb-et9-2_eYPAz-45" value="" style="endArrow=diamondThin;endFill=1;endSize=24;html=1;rounded=0;entryX=1.013;entryY=0.185;entryDx=0;entryDy=0;entryPerimeter=0;exitX=0.038;exitY=0.014;exitDx=0;exitDy=0;exitPerimeter=0;" edge="1" parent="1" source="Fy9X7Dhb-et9-2_eYPAz-1" target="Fy9X7Dhb-et9-2_eYPAz-20">
          <mxGeometry width="160" relative="1" as="geometry">
            <mxPoint x="420" y="440" as="sourcePoint" />
            <mxPoint x="422" y="372" as="targetPoint" />
          </mxGeometry>
        </mxCell>
        <mxCell id="Fy9X7Dhb-et9-2_eYPAz-46" value="Card" style="swimlane;childLayout=stackLayout;resizeParent=1;resizeParentMax=0;startSize=20;html=1;" vertex="1" parent="1">
          <mxGeometry x="40.000000000000455" y="-440" width="240" height="120" as="geometry" />
        </mxCell>
        <mxCell id="Fy9X7Dhb-et9-2_eYPAz-47" value="" style="swimlane;startSize=20;html=1;" vertex="1" parent="Fy9X7Dhb-et9-2_eYPAz-46">
          <mxGeometry y="20" width="120" height="100" as="geometry" />
        </mxCell>
        <mxCell id="Fy9X7Dhb-et9-2_eYPAz-53" value="Has Rank" style="text;html=1;align=center;verticalAlign=middle;resizable=0;points=[];autosize=1;strokeColor=none;fillColor=none;" vertex="1" parent="Fy9X7Dhb-et9-2_eYPAz-47">
          <mxGeometry x="-4.547473508864641e-13" y="20" width="80" height="30" as="geometry" />
        </mxCell>
        <mxCell id="Fy9X7Dhb-et9-2_eYPAz-55" value="Has Suite" style="text;html=1;align=center;verticalAlign=middle;resizable=0;points=[];autosize=1;strokeColor=none;fillColor=none;" vertex="1" parent="Fy9X7Dhb-et9-2_eYPAz-47">
          <mxGeometry x="-4.547473508864641e-13" y="50" width="80" height="30" as="geometry" />
        </mxCell>
        <mxCell id="Fy9X7Dhb-et9-2_eYPAz-48" value="" style="swimlane;startSize=20;html=1;" vertex="1" parent="Fy9X7Dhb-et9-2_eYPAz-46">
          <mxGeometry x="120" y="20" width="120" height="100" as="geometry" />
        </mxCell>
        <mxCell id="Fy9X7Dhb-et9-2_eYPAz-57" value="Deck" style="text;html=1;align=center;verticalAlign=middle;resizable=0;points=[];autosize=1;strokeColor=none;fillColor=none;" vertex="1" parent="Fy9X7Dhb-et9-2_eYPAz-48">
          <mxGeometry x="34.999999999999545" y="20" width="50" height="30" as="geometry" />
        </mxCell>
        <mxCell id="Fy9X7Dhb-et9-2_eYPAz-50" value="Hand" style="swimlane;childLayout=stackLayout;resizeParent=1;resizeParentMax=0;startSize=20;html=1;" vertex="1" parent="1">
          <mxGeometry x="340.00000000000045" y="-440" width="240" height="110" as="geometry" />
        </mxCell>
        <mxCell id="Fy9X7Dhb-et9-2_eYPAz-51" value="" style="swimlane;startSize=20;html=1;" vertex="1" parent="Fy9X7Dhb-et9-2_eYPAz-50">
          <mxGeometry y="20" width="120" height="90" as="geometry" />
        </mxCell>
        <mxCell id="Fy9X7Dhb-et9-2_eYPAz-58" value="Has 5 cards" style="text;html=1;align=center;verticalAlign=middle;resizable=0;points=[];autosize=1;strokeColor=none;fillColor=none;" vertex="1" parent="Fy9X7Dhb-et9-2_eYPAz-51">
          <mxGeometry x="-4.547473508864641e-13" y="20" width="90" height="30" as="geometry" />
        </mxCell>
        <mxCell id="Fy9X7Dhb-et9-2_eYPAz-52" value="" style="swimlane;startSize=20;html=1;" vertex="1" parent="Fy9X7Dhb-et9-2_eYPAz-50">
          <mxGeometry x="120" y="20" width="120" height="90" as="geometry" />
        </mxCell>
        <mxCell id="Fy9X7Dhb-et9-2_eYPAz-65" value="Dealer" style="text;html=1;align=center;verticalAlign=middle;resizable=0;points=[];autosize=1;strokeColor=none;fillColor=none;" vertex="1" parent="Fy9X7Dhb-et9-2_eYPAz-52">
          <mxGeometry x="-4.547473508864641e-13" y="20" width="60" height="30" as="geometry" />
        </mxCell>
        <mxCell id="Fy9X7Dhb-et9-2_eYPAz-60" value="Player" style="swimlane;childLayout=stackLayout;resizeParent=1;resizeParentMax=0;startSize=20;html=1;" vertex="1" parent="1">
          <mxGeometry x="40.000000000000455" y="-290" width="240" height="110" as="geometry" />
        </mxCell>
        <mxCell id="Fy9X7Dhb-et9-2_eYPAz-61" value="" style="swimlane;startSize=20;html=1;" vertex="1" parent="Fy9X7Dhb-et9-2_eYPAz-60">
          <mxGeometry y="20" width="120" height="90" as="geometry" />
        </mxCell>
        <mxCell id="Fy9X7Dhb-et9-2_eYPAz-62" value="Has a hand" style="text;html=1;align=center;verticalAlign=middle;resizable=0;points=[];autosize=1;strokeColor=none;fillColor=none;" vertex="1" parent="Fy9X7Dhb-et9-2_eYPAz-61">
          <mxGeometry x="4.999999999999545" y="20" width="80" height="30" as="geometry" />
        </mxCell>
        <mxCell id="Fy9X7Dhb-et9-2_eYPAz-63" value="" style="swimlane;startSize=20;html=1;" vertex="1" parent="Fy9X7Dhb-et9-2_eYPAz-60">
          <mxGeometry x="120" y="20" width="120" height="90" as="geometry" />
        </mxCell>
        <mxCell id="Fy9X7Dhb-et9-2_eYPAz-64" value="Hand" style="text;html=1;align=center;verticalAlign=middle;resizable=0;points=[];autosize=1;strokeColor=none;fillColor=none;" vertex="1" parent="Fy9X7Dhb-et9-2_eYPAz-63">
          <mxGeometry x="-4.547473508864641e-13" y="20" width="50" height="30" as="geometry" />
        </mxCell>
        <mxCell id="Fy9X7Dhb-et9-2_eYPAz-66" value="Dealer" style="swimlane;childLayout=stackLayout;resizeParent=1;resizeParentMax=0;startSize=20;html=1;" vertex="1" parent="1">
          <mxGeometry x="330.00000000000045" y="-290" width="280" height="110" as="geometry" />
        </mxCell>
        <mxCell id="Fy9X7Dhb-et9-2_eYPAz-67" value="" style="swimlane;startSize=20;html=1;" vertex="1" parent="Fy9X7Dhb-et9-2_eYPAz-66">
          <mxGeometry y="20" width="140" height="90" as="geometry" />
        </mxCell>
        <mxCell id="Fy9X7Dhb-et9-2_eYPAz-68" value="Has a deck of cards" style="text;html=1;align=center;verticalAlign=middle;resizable=0;points=[];autosize=1;strokeColor=none;fillColor=none;" vertex="1" parent="Fy9X7Dhb-et9-2_eYPAz-67">
          <mxGeometry x="-4.547473508864641e-13" y="20" width="130" height="30" as="geometry" />
        </mxCell>
        <mxCell id="Fy9X7Dhb-et9-2_eYPAz-88" value="Has a pot of money" style="text;html=1;align=center;verticalAlign=middle;resizable=0;points=[];autosize=1;strokeColor=none;fillColor=none;" vertex="1" parent="Fy9X7Dhb-et9-2_eYPAz-67">
          <mxGeometry x="-4.547473508864641e-13" y="40" width="130" height="30" as="geometry" />
        </mxCell>
        <mxCell id="Fy9X7Dhb-et9-2_eYPAz-89" value="Runs the game" style="text;html=1;align=center;verticalAlign=middle;resizable=0;points=[];autosize=1;strokeColor=none;fillColor=none;" vertex="1" parent="Fy9X7Dhb-et9-2_eYPAz-67">
          <mxGeometry x="9.999999999999545" y="60" width="100" height="30" as="geometry" />
        </mxCell>
        <mxCell id="Fy9X7Dhb-et9-2_eYPAz-69" value="" style="swimlane;startSize=20;html=1;" vertex="1" parent="Fy9X7Dhb-et9-2_eYPAz-66">
          <mxGeometry x="140" y="20" width="140" height="90" as="geometry" />
        </mxCell>
        <mxCell id="Fy9X7Dhb-et9-2_eYPAz-70" value="Hand" style="text;html=1;align=center;verticalAlign=middle;resizable=0;points=[];autosize=1;strokeColor=none;fillColor=none;" vertex="1" parent="Fy9X7Dhb-et9-2_eYPAz-69">
          <mxGeometry x="-4.547473508864641e-13" y="20" width="50" height="30" as="geometry" />
        </mxCell>
        <mxCell id="Fy9X7Dhb-et9-2_eYPAz-71" value="0-*" style="text;html=1;align=center;verticalAlign=middle;resizable=0;points=[];autosize=1;strokeColor=none;fillColor=none;" vertex="1" parent="1">
          <mxGeometry x="370" y="80" width="40" height="30" as="geometry" />
        </mxCell>
        <mxCell id="Fy9X7Dhb-et9-2_eYPAz-74" value="52" style="text;html=1;align=center;verticalAlign=middle;resizable=0;points=[];autosize=1;strokeColor=none;fillColor=none;" vertex="1" parent="1">
          <mxGeometry x="405" y="450" width="40" height="30" as="geometry" />
        </mxCell>
        <mxCell id="Fy9X7Dhb-et9-2_eYPAz-73" value="5" style="text;html=1;align=center;verticalAlign=middle;resizable=0;points=[];autosize=1;strokeColor=none;fillColor=none;" vertex="1" parent="1">
          <mxGeometry x="515" y="450" width="210" height="30" as="geometry" />
        </mxCell>
        <mxCell id="Fy9X7Dhb-et9-2_eYPAz-76" value="1" style="text;html=1;align=center;verticalAlign=middle;resizable=0;points=[];autosize=1;strokeColor=none;fillColor=none;" vertex="1" parent="1">
          <mxGeometry x="605" y="360" width="30" height="30" as="geometry" />
        </mxCell>
        <mxCell id="Fy9X7Dhb-et9-2_eYPAz-77" value="1" style="text;html=1;align=center;verticalAlign=middle;resizable=0;points=[];autosize=1;strokeColor=none;fillColor=none;" vertex="1" parent="1">
          <mxGeometry x="285" y="370" width="30" height="30" as="geometry" />
        </mxCell>
        <mxCell id="Fy9X7Dhb-et9-2_eYPAz-78" value="1" style="text;html=1;align=center;verticalAlign=middle;resizable=0;points=[];autosize=1;strokeColor=none;fillColor=none;" vertex="1" parent="1">
          <mxGeometry x="300" y="80" width="30" height="30" as="geometry" />
        </mxCell>
        <mxCell id="Fy9X7Dhb-et9-2_eYPAz-79" value="Poker" style="swimlane;childLayout=stackLayout;resizeParent=1;resizeParentMax=0;startSize=20;html=1;" vertex="1" parent="1">
          <mxGeometry x="40.000000000000455" y="-160" width="280" height="130" as="geometry" />
        </mxCell>
        <mxCell id="Fy9X7Dhb-et9-2_eYPAz-80" value="" style="swimlane;startSize=20;html=1;" vertex="1" parent="Fy9X7Dhb-et9-2_eYPAz-79">
          <mxGeometry y="20" width="140" height="110" as="geometry" />
        </mxCell>
        <mxCell id="Fy9X7Dhb-et9-2_eYPAz-81" value="Has a dealer" style="text;html=1;align=center;verticalAlign=middle;resizable=0;points=[];autosize=1;strokeColor=none;fillColor=none;" vertex="1" parent="Fy9X7Dhb-et9-2_eYPAz-80">
          <mxGeometry x="-4.547473508864641e-13" y="20" width="90" height="30" as="geometry" />
        </mxCell>
        <mxCell id="Fy9X7Dhb-et9-2_eYPAz-84" value="Has a group of people" style="text;html=1;align=center;verticalAlign=middle;resizable=0;points=[];autosize=1;strokeColor=none;fillColor=none;" vertex="1" parent="Fy9X7Dhb-et9-2_eYPAz-80">
          <mxGeometry x="-4.547473508864641e-13" y="40" width="140" height="30" as="geometry" />
        </mxCell>
        <mxCell id="Fy9X7Dhb-et9-2_eYPAz-82" value="" style="swimlane;startSize=20;html=1;" vertex="1" parent="Fy9X7Dhb-et9-2_eYPAz-79">
          <mxGeometry x="140" y="20" width="140" height="110" as="geometry" />
        </mxCell>
        <mxCell id="Fy9X7Dhb-et9-2_eYPAz-83" value="Dealer" style="text;html=1;align=center;verticalAlign=middle;resizable=0;points=[];autosize=1;strokeColor=none;fillColor=none;" vertex="1" parent="Fy9X7Dhb-et9-2_eYPAz-82">
          <mxGeometry x="-5.000000000000455" y="20" width="60" height="30" as="geometry" />
        </mxCell>
        <mxCell id="Fy9X7Dhb-et9-2_eYPAz-86" value="Hands" style="text;html=1;align=center;verticalAlign=middle;resizable=0;points=[];autosize=1;strokeColor=none;fillColor=none;" vertex="1" parent="Fy9X7Dhb-et9-2_eYPAz-82">
          <mxGeometry x="-5.000000000000455" y="40" width="60" height="30" as="geometry" />
        </mxCell>
      </root>
    </mxGraphModel>
  </diagram>
</mxfile>
